# Blender v2.79 (sub 0) OBJ File: 'tank2.blend'
# www.blender.org
mtllib tank.mtl
o Cube_Cube.004
v -0.847565 0.660945 0.815988
v -0.847565 0.847565 0.767974
v -0.847565 0.847565 0.815988
v -0.847565 0.660945 0.767974
v -0.225499 0.847565 0.767974
v -0.225499 0.847565 0.815988
v -0.225499 0.660945 0.815988
v -0.225499 0.660945 0.767974
v -0.660945 0.847565 0.767974
v -0.660945 0.847565 0.815988
v -0.660945 0.660945 0.767974
v -0.660945 0.660945 0.815988
v -0.660945 0.225499 0.767974
v -0.847565 0.225499 0.767974
v -0.847565 0.225499 0.815988
v -0.660945 0.225499 0.815988
v -0.847565 0.847565 0.815988
v -0.847565 0.847565 0.767974
v -0.225499 0.847565 0.815988
v -0.225499 0.660945 0.815988
v -0.225499 0.847565 0.767974
v -0.225499 0.660945 0.767974
v -0.660945 0.847565 0.767974
v -0.660945 0.847565 0.815988
v -0.660945 0.660945 0.815988
v -0.847565 0.660945 0.815988
v -0.847565 0.660945 0.767974
v -0.660945 0.660945 0.767974
v -0.660945 0.225499 0.767974
v -0.847565 0.225499 0.767974
v -0.847565 0.225499 0.815988
v -0.660945 0.225499 0.815988
v -0.660945 -0.847565 0.815986
v -0.847565 -0.847565 0.815986
v -0.847565 -0.847565 0.767972
v -0.660945 -0.847565 0.767972
v -0.225499 -0.847565 0.767972
v -0.660945 -0.660945 0.767972
v -0.225499 -0.660945 0.767972
v -0.225499 -0.847565 0.815986
v -0.225499 -0.660945 0.815986
v -0.847565 -0.660945 0.767972
v -0.847565 -0.660945 0.815986
v -0.660945 -0.660945 0.815986
v -0.660945 -0.225499 0.815986
v -0.847565 -0.225499 0.815986
v -0.847565 -0.225499 0.767972
v -0.660945 -0.225499 0.767972
v 0.847565 0.847565 0.767971
v 0.847565 0.847565 0.815985
v 0.225499 0.847565 0.767971
v 0.225499 0.660945 0.767971
v 0.225499 0.847565 0.815985
v 0.225499 0.660945 0.815985
v 0.660945 0.847565 0.815985
v 0.660945 0.847565 0.767971
v 0.660945 0.847565 0.815985
v 0.847565 0.847565 0.815985
v 0.660945 0.660945 0.767971
v 0.847565 0.847565 0.767971
v 0.847565 0.660945 0.767971
v 0.847565 0.660945 0.815985
v 0.660945 0.660945 0.815985
v 0.660945 0.847565 0.767971
v 0.225499 0.847565 0.767971
v 0.660945 0.660945 0.767971
v 0.225499 0.660945 0.767971
v 0.225499 0.847565 0.815985
v 0.225499 0.660945 0.815985
v 0.660945 0.225499 0.815985
v 0.847565 0.225499 0.815985
v 0.847565 0.225499 0.767971
v 0.660945 0.225499 0.767971
v 0.847565 0.660945 0.767971
v 0.847565 0.660945 0.815985
v 0.660945 0.660945 0.815985
v 0.660945 0.225499 0.815985
v 0.847565 0.225499 0.815985
v 0.847565 0.225499 0.767971
v 0.660945 0.225499 0.767971
v 0.660945 -0.847565 0.767973
v 0.847565 -0.847565 0.767973
v 0.847565 -0.847565 0.815987
v 0.660945 -0.847565 0.815987
v 0.225499 -0.847565 0.815987
v 0.660945 -0.660945 0.815987
v 0.225499 -0.660945 0.815987
v 0.225499 -0.847565 0.767973
v 0.225499 -0.660945 0.767973
v 0.847565 -0.660945 0.815987
v 0.847565 -0.660945 0.767973
v 0.660945 -0.660945 0.767973
v 0.660945 -0.225499 0.767973
v 0.847565 -0.225499 0.767973
v 0.847565 -0.225499 0.815987
v 0.660945 -0.225499 0.815987
vn 0.0000 -1.0000 0.0000
vn -1.0000 0.0000 0.0000
vn 1.0000 0.0000 0.0000
vn 0.0000 0.0000 1.0000
vn 0.0000 1.0000 0.0000
vn 0.0000 0.0000 -1.0000
usemtl Material.002
s off
f 12//1 11//1 8//1 7//1
f 2//2 4//2 14//2 15//2 1//2 3//2
f 8//3 5//3 6//3 7//3
f 25//1 28//1 22//1 20//1
f 26//4 31//4 32//4 25//4 20//4 19//4 24//4 17//4
f 1//4 15//4 16//4 12//4 7//4 6//4 10//4 3//4
f 28//3 25//3 32//3 29//3
f 10//5 6//5 5//5 9//5 2//5 3//5
f 22//3 21//3 19//3 20//3
f 18//2 27//2 30//2 31//2 26//2 17//2
f 15//1 14//1 13//1 16//1
f 24//5 19//5 21//5 23//5 18//5 17//5
f 11//3 12//3 16//3 13//3
f 4//6 2//6 9//6 5//6 8//6 11//6 13//6 14//6
f 31//1 30//1 29//1 32//1
f 27//6 18//6 23//6 21//6 22//6 28//6 29//6 30//6
f 38//1 39//1 41//1 44//1
f 42//4 35//4 36//4 37//4 39//4 38//4 48//4 47//4
f 44//2 45//2 48//2 38//2
f 41//2 39//2 37//2 40//2
f 34//3 35//3 42//3 47//3 46//3 43//3
f 36//5 35//5 34//5 33//5 40//5 37//5
f 47//1 48//1 45//1 46//1
f 43//6 46//6 45//6 44//6 41//6 40//6 33//6 34//6
f 59//5 52//5 54//5 63//5
f 50//2 49//2 61//2 72//2 71//2 62//2
f 54//3 52//3 51//3 53//3
f 66//5 67//5 69//5 76//5
f 74//4 60//4 64//4 65//4 67//4 66//4 80//4 79//4
f 61//4 49//4 56//4 51//4 52//4 59//4 73//4 72//4
f 76//3 77//3 80//3 66//3
f 56//1 49//1 50//1 55//1 53//1 51//1
f 69//3 67//3 65//3 68//3
f 58//2 60//2 74//2 79//2 78//2 75//2
f 72//5 73//5 70//5 71//5
f 64//1 60//1 58//1 57//1 68//1 65//1
f 63//3 70//3 73//3 59//3
f 62//6 71//6 70//6 63//6 54//6 53//6 55//6 50//6
f 79//5 80//5 77//5 78//5
f 75//6 78//6 77//6 76//6 69//6 68//6 57//6 58//6
f 86//5 92//5 89//5 87//5
f 90//4 95//4 96//4 86//4 87//4 85//4 84//4 83//4
f 92//2 86//2 96//2 93//2
f 89//2 88//2 85//2 87//2
f 82//3 91//3 94//3 95//3 90//3 83//3
f 84//1 85//1 88//1 81//1 82//1 83//1
f 95//5 94//5 93//5 96//5
f 91//6 82//6 81//6 88//6 89//6 92//6 93//6 94//6
